<svg width="108" height="61" fill="none" xmlns="http://www.w3.org/2000/svg"><g clip-path="url(#clip0)"><path d="M76.317 32.885V41.45c-.876.122-1.773.183-2.685.183V12.799c.912 0 1.808.061 2.685.184v19.902zm30.79 9.273V12.274a20.056 20.056 0 00-2.415-1.32v-.01a19.625 19.625 0 00-5.171-1.564v-.01a12.378 12.378 0 00-2.14-.183h-.143c-.729 0-1.442.06-2.14.183v.01a19.68 19.68 0 00-5.197 1.564v.01c-.836.388-1.646.821-2.415 1.32v29.884c.769.494 1.58.932 2.415 1.32v.01a19.82 19.82 0 005.197 1.569v.01c.698.123 1.411.184 2.14.184h.143c.723 0 1.442-.061 2.14-.184v-.015a19.75 19.75 0 005.171-1.564v-.01a20.042 20.042 0 002.415-1.32zM.031 9.14v36.15h7.944V31.876l3.057 13.415h8.718L11.888 25.94l6.924-16.8H11.45L7.975 21.187V9.14H.03zm81.814 1.803a19.598 19.598 0 00-8.234-1.803H63.06v4.662l2.634-.352v27.525l-2.634-.352v4.662H73.606c2.94 0 5.732-.647 8.234-1.803v-.01a20.12 20.12 0 002.415-1.32V12.274a19.737 19.737 0 00-2.415-1.32v-.01h.005zm-29.302 21.94V41.45c-.877.122-1.773.183-2.686.183V12.799c.913 0 1.81.061 2.686.184v19.902zm5.528-21.94a19.598 19.598 0 00-8.234-1.803H39.28v4.662l2.634-.352v27.525l-2.634-.352v4.662h10.552c2.94 0 5.732-.647 8.234-1.803v-.01a20.112 20.112 0 002.415-1.32V12.274a19.737 19.737 0 00-2.415-1.32v-.01h.005zm41.093 6.869V41.45h-.01v.02c-.581.081-1.172.127-1.773.127H97.233c-.607 0-1.208-.046-1.799-.132v-.015h-.01V12.988h.01v-.016a12.355 12.355 0 011.799-.132H97.376c.6 0 1.192.046 1.773.127v.02h.01v4.826h.005zm-69.82-10.47l.051.05 5.987-4.58-.754-.755-.968-.968L32.57 0l-4.581 5.987.387.387.968.968zM21.472 36.68v8.612H36.9v-4.663l-7.49.999V26.887l6.762 1.055V23.56H29.41V12.81l7.495.998V9.146H21.472V36.68z" fill="#000"/><g clip-path="url(#clip1)"><path d="M76.263 32.673v8.51c-.876.121-1.772.182-2.684.182V12.717c.912 0 1.808.06 2.684.182v19.774zm30.768 9.214V12.195a20.163 20.163 0 00-2.413-1.31v-.01A19.7 19.7 0 0099.45 9.32v-.01a12.44 12.44 0 00-2.139-.182H97.17c-.728 0-1.441.06-2.139.182v.01a19.75 19.75 0 00-5.193 1.554v.01c-.835.385-1.645.815-2.413 1.311v29.692a20.14 20.14 0 002.413 1.31v.01a19.89 19.89 0 005.193 1.56v.01c.698.122 1.41.182 2.139.182h.142c.723 0 1.441-.06 2.139-.182v-.015a19.816 19.816 0 005.168-1.554v-.01c.835-.385 1.644-.82 2.413-1.311zM.031 9.082V45H7.97V31.67L11.024 45h8.712l-7.857-19.227L18.8 9.082h-7.357L7.969 21.05V9.082H.031zm81.756 1.792a19.678 19.678 0 00-8.228-1.792H63.014v4.632l2.633-.35v27.348l-2.633-.35v4.633h10.54a19.66 19.66 0 008.228-1.792v-.01c.835-.385 1.645-.82 2.413-1.311V12.195a19.77 19.77 0 00-2.413-1.31v-.01h.005zM52.505 32.673v8.51c-.875.121-1.772.182-2.683.182V12.717c.911 0 1.808.06 2.683.182v19.774zm5.525-21.799a19.678 19.678 0 00-8.228-1.792h-10.55v4.632l2.632-.35v27.348l-2.632-.35v4.633h10.545a19.66 19.66 0 008.228-1.792v-.01c.835-.385 1.644-.82 2.413-1.311V12.195a19.768 19.768 0 00-2.413-1.31v-.01h.005zm41.064 6.824v23.485h-.01v.02c-.581.081-1.172.127-1.773.127H97.164c-.606 0-1.207-.046-1.798-.132v-.015h-.01V12.904h.01v-.015a12.41 12.41 0 011.798-.132H97.306c.601 0 1.192.046 1.772.127v.02h.01v4.794h.006zM29.324 7.295l.05.05 5.983-4.55-.754-.75-.967-.962L32.546 0 27.97 5.948l.387.385.967.962zm-7.867 29.15V45h15.417v-4.632l-7.485.992V26.714l6.757 1.048V23.41H29.39V12.727l7.49.992V9.087H21.456v27.357z" fill="#000"/></g></g><path d="M1.587 60.772c-.317 0-.622-.058-.915-.174a1.656 1.656 0 01-.672-.46l.177-.398c.155.177.36.32.617.432.256.107.52.16.793.16.383 0 .67-.078.861-.236a.786.786 0 00.287-.628.667.667 0 00-.159-.467.979.979 0 00-.378-.265 5.067 5.067 0 00-.629-.21 6.479 6.479 0 01-.77-.264 1.334 1.334 0 01-.494-.398c-.134-.177-.201-.416-.201-.718 0-.247.057-.47.17-.67.115-.204.29-.367.526-.488.236-.12.529-.181.879-.181.244 0 .482.04.714.118.236.075.44.18.61.314l-.152.412a1.926 1.926 0 00-.574-.3 1.84 1.84 0 00-.598-.105c-.375 0-.657.084-.849.251a.801.801 0 00-.28.635c0 .195.05.353.152.474.106.116.236.207.39.272.16.06.371.128.636.202.313.089.565.177.757.265.195.084.36.214.494.39.135.173.202.408.202.705 0 .247-.06.472-.177.677-.114.2-.291.36-.531.48-.24.117-.536.175-.886.175zM9.67 55.849v4.881h-.446v-2.252H6.55v2.252h-.452V55.85h.452v2.176h2.674v-2.176h.446zM14.866 60.772a2.15 2.15 0 01-1.154-.32 2.286 2.286 0 01-.806-.893 2.762 2.762 0 01-.287-1.27c0-.47.096-.892.287-1.269.196-.376.464-.672.806-.885.346-.219.73-.328 1.154-.328.423 0 .804.107 1.142.32.341.215.61.512.805.893.196.377.293.8.293 1.27 0 .469-.097.894-.293 1.276a2.234 2.234 0 01-.805.885 2.09 2.09 0 01-1.142.321zm0-.46c.338 0 .643-.086.916-.258.272-.177.486-.419.64-.726.155-.31.233-.657.233-1.039 0-.38-.078-.725-.232-1.032a1.761 1.761 0 00-.641-.725 1.648 1.648 0 00-.916-.265c-.338 0-.645.088-.922.265a1.803 1.803 0 00-.647.725c-.155.307-.232.651-.232 1.032 0 .382.077.728.232 1.04.159.306.374.548.647.725.277.172.584.258.922.258zM23.074 60.284v.446h-3.022V55.85h2.93v.446h-2.478v1.736h2.21v.44h-2.21v1.813h2.57zM27.248 60.772c-.318 0-.623-.058-.916-.174a1.656 1.656 0 01-.672-.46l.177-.398c.155.177.36.32.617.432.256.107.521.16.794.16.382 0 .67-.078.86-.236a.786.786 0 00.287-.628.667.667 0 00-.158-.467.979.979 0 00-.379-.265 5.068 5.068 0 00-.629-.21 6.475 6.475 0 01-.769-.264 1.333 1.333 0 01-.494-.398c-.135-.177-.202-.416-.202-.718 0-.247.057-.47.171-.67.114-.204.29-.367.525-.488.236-.12.53-.181.88-.181.244 0 .482.04.714.118.236.075.44.18.61.314l-.153.412a1.924 1.924 0 00-.573-.3 1.84 1.84 0 00-.599-.105c-.374 0-.657.084-.848.251a.801.801 0 00-.281.635c0 .195.05.353.152.474.106.116.237.207.391.272.159.06.37.128.635.202.313.089.566.177.757.265.195.084.36.214.495.39.134.173.201.408.201.705 0 .247-.059.472-.177.677-.114.2-.29.36-.531.48-.24.117-.535.175-.885.175zM38.348 60.807l-.592-.697c-.362.441-.838.662-1.428.662-.277 0-.526-.051-.745-.153a1.26 1.26 0 01-.507-.44 1.176 1.176 0 01-.183-.648c0-.293.081-.556.244-.788.163-.233.44-.477.83-.733a2.945 2.945 0 01-.42-.613 1.312 1.312 0 01-.117-.544c0-.312.098-.563.293-.753.196-.19.458-.286.788-.286.305 0 .547.086.726.258.18.172.269.409.269.711 0 .242-.071.46-.214.656-.142.19-.389.402-.739.634l1.173 1.381c.13-.265.226-.579.287-.941l.354.125a3.54 3.54 0 01-.379 1.123l.61.718-.25.328zm-1.837-4.623c-.212 0-.379.06-.5.18a.66.66 0 00-.178.482c0 .144.033.281.098.411.065.13.193.307.384.53.31-.204.523-.379.641-.523a.732.732 0 00.177-.474.585.585 0 00-.164-.44c-.11-.11-.263-.166-.458-.166zm-.159 4.177c.472 0 .855-.184 1.148-.551l-1.288-1.514c-.338.219-.572.416-.703.593a.996.996 0 00-.189.593c0 .265.094.479.281.642.191.158.442.237.751.237zM47.518 59.426h-2.381l-.513 1.304h-.47l1.954-4.881h.445l1.954 4.881h-.476l-.513-1.304zm-.165-.418l-1.026-2.622-1.025 2.622h2.051zM52.944 60.772a2.12 2.12 0 01-1.148-.32 2.25 2.25 0 01-.8-.886 2.805 2.805 0 01-.287-1.277c0-.47.096-.892.287-1.269.195-.38.464-.678.806-.892a2.12 2.12 0 011.148-.321c.317 0 .61.06.879.181.268.121.496.298.684.53l-.288.328a1.6 1.6 0 00-1.263-.579c-.338 0-.645.088-.922.265a1.849 1.849 0 00-.653.725 2.26 2.26 0 00-.232 1.032c0 .382.077.726.232 1.033.158.306.376.548.653.725.277.177.584.265.922.265a1.58 1.58 0 001.263-.586l.288.328a1.888 1.888 0 01-.69.537c-.269.12-.562.181-.88.181zM59.175 60.772a2.12 2.12 0 01-1.147-.32 2.25 2.25 0 01-.8-.886 2.805 2.805 0 01-.287-1.277c0-.47.095-.892.287-1.269.195-.38.464-.678.806-.892a2.12 2.12 0 011.147-.321c.318 0 .61.06.88.181.268.121.496.298.683.53l-.287.328a1.6 1.6 0 00-1.263-.579c-.338 0-.646.088-.922.265a1.848 1.848 0 00-.654.725 2.26 2.26 0 00-.232 1.032c0 .382.078.726.232 1.033.16.306.377.548.654.725.276.177.584.265.922.265a1.58 1.58 0 001.263-.586l.287.328a1.887 1.887 0 01-.69.537c-.268.12-.561.181-.879.181zM66.662 60.284v.446H63.64V55.85h2.93v.446h-2.478v1.736h2.21v.44h-2.21v1.813h2.57zM70.836 60.772c-.317 0-.623-.058-.916-.174a1.657 1.657 0 01-.671-.46l.177-.398c.154.177.36.32.616.432.257.107.521.16.794.16.383 0 .67-.078.86-.236a.786.786 0 00.288-.628.667.667 0 00-.16-.467.979.979 0 00-.378-.265 5.068 5.068 0 00-.628-.21 6.48 6.48 0 01-.77-.264 1.334 1.334 0 01-.494-.398c-.134-.177-.202-.416-.202-.718 0-.247.057-.47.171-.67.114-.204.29-.367.525-.488.236-.12.53-.181.88-.181.244 0 .482.04.714.118.236.075.44.18.61.314l-.152.412a1.926 1.926 0 00-.574-.3 1.84 1.84 0 00-.599-.105c-.374 0-.657.084-.848.251a.801.801 0 00-.28.635c0 .195.05.353.152.474.106.116.236.207.39.272.16.06.37.128.635.202.314.089.566.177.757.265.196.084.36.214.495.39.134.173.201.408.201.705 0 .247-.059.472-.177.677-.114.2-.29.36-.53.48-.241.117-.536.175-.886.175zM76.525 60.772c-.317 0-.623-.058-.916-.174a1.655 1.655 0 01-.671-.46l.177-.398c.155.177.36.32.617.432.256.107.52.16.793.16.383 0 .67-.078.861-.236a.786.786 0 00.287-.628.667.667 0 00-.159-.467.98.98 0 00-.378-.265 5.068 5.068 0 00-.63-.21 6.477 6.477 0 01-.768-.264 1.334 1.334 0 01-.495-.398c-.134-.177-.201-.416-.201-.718 0-.247.057-.47.17-.67.115-.204.29-.367.526-.488.236-.12.529-.181.879-.181.244 0 .482.04.714.118.236.075.44.18.61.314l-.152.412a1.926 1.926 0 00-.574-.3 1.84 1.84 0 00-.598-.105c-.375 0-.658.084-.849.251a.8.8 0 00-.28.635c0 .195.05.353.152.474.106.116.236.207.39.272.16.06.371.128.636.202.313.089.565.177.757.265.195.084.36.214.494.39.134.173.202.408.202.705 0 .247-.06.472-.177.677-.114.2-.291.36-.532.48-.24.117-.535.175-.885.175zM82.904 60.772c-.423 0-.808-.107-1.154-.32a2.286 2.286 0 01-.805-.893 2.762 2.762 0 01-.287-1.27c0-.47.095-.892.287-1.269.195-.376.464-.672.805-.885.346-.219.731-.328 1.154-.328.424 0 .804.107 1.142.32.342.215.61.512.806.893.195.377.293.8.293 1.27 0 .469-.098.894-.293 1.276a2.234 2.234 0 01-.806.885 2.09 2.09 0 01-1.142.321zm0-.46c.338 0 .643-.086.916-.258a1.82 1.82 0 00.641-.726c.155-.31.232-.657.232-1.039 0-.38-.077-.725-.232-1.032a1.76 1.76 0 00-.641-.725 1.648 1.648 0 00-.916-.265c-.337 0-.645.088-.922.265a1.802 1.802 0 00-.647.725 2.26 2.26 0 00-.232 1.032c0 .382.078.728.232 1.04.159.306.375.548.647.725.277.172.585.258.922.258zM91.009 60.73l-.977-1.569c-.11.014-.224.021-.342.021h-1.148v1.548h-.451V55.85h1.6c.545 0 .972.149 1.281.446.31.298.464.707.464 1.227 0 .382-.085.705-.256.97-.167.26-.407.448-.72.565l1.043 1.673h-.494zm-1.331-1.987c.423 0 .747-.107.97-.321.225-.214.336-.514.336-.9 0-.395-.111-.697-.335-.906-.224-.214-.548-.32-.971-.32h-1.136v2.447h1.136zM94.436 55.849h.451v4.881h-.451V55.85zM101.233 60.284v.446h-3.022V55.85h2.931v.446h-2.479v1.736h2.21v.44h-2.21v1.813h2.57zM105.407 60.772c-.318 0-.623-.058-.916-.174a1.66 1.66 0 01-.672-.46l.177-.398c.155.177.361.32.617.432.256.107.521.16.794.16.382 0 .669-.078.86-.236a.784.784 0 00.287-.628.67.67 0 00-.158-.467.98.98 0 00-.379-.265 5.016 5.016 0 00-.629-.21 6.489 6.489 0 01-.769-.264 1.331 1.331 0 01-.494-.398c-.135-.177-.202-.416-.202-.718 0-.247.057-.47.171-.67.114-.204.289-.367.525-.488.236-.12.529-.181.879-.181.244 0 .482.04.714.118.237.075.44.18.611.314l-.153.412a1.92 1.92 0 00-.574-.3 1.833 1.833 0 00-.598-.105c-.374 0-.657.084-.848.251a.799.799 0 00-.281.635c0 .195.051.353.152.474.106.116.236.207.391.272.159.06.37.128.635.202.313.089.566.177.757.265.195.084.36.214.495.39.134.173.201.408.201.705 0 .247-.059.472-.177.677-.114.2-.291.36-.531.48-.24.117-.535.175-.885.175z" fill="#000"/><defs><clipPath id="clip0"><path fill="#fff" transform="translate(.031)" d="M0 0h107.076v45.291H0z"/></clipPath><clipPath id="clip1"><path fill="#fff" transform="translate(.031)" d="M0 0h107.076v45.291H0z"/></clipPath></defs></svg>